mtllib ItmSmashBall.mtl

v -3.695557 -1.414307 0.585693
v -4.000000 0.000000 0.000000
v -3.695557 -1.530762 0.000000
v -3.695557 -1.082275 1.082275
v -2.828369 -2.000000 2.000000
v -2.828369 -1.082275 2.613037
v -1.530762 -1.414307 3.414307
v -1.530762 0.000000 3.695557
v 0.000000 0.000000 4.000000
v 0.000000 1.530762 3.695557
v 1.530762 1.414307 3.414307
v 1.530762 2.613037 2.613037
v 2.828369 2.000000 2.000000
v 2.828369 2.613037 1.082275
v 3.695557 1.414307 0.585693
v 3.695557 1.530762 0.000000
v 4.000000 0.000000 0.000000
v -2.828369 -2.613037 1.082275
v -1.530762 -2.613037 2.613037
v 0.000000 -1.530762 3.695557
v 1.530762 0.000000 3.695557
v 2.828369 1.082275 2.613037
v 3.695557 1.082275 1.082275
v 2.828369 2.828369 0.000000
v 1.530762 3.414307 1.414307
v 1.530762 3.695557 0.000000
v 0.000000 3.695557 1.530762
v 0.000000 4.000000 0.000000
v -1.530762 3.414307 1.414307
v -1.530762 3.695557 0.000000
v -2.828369 2.613037 1.082275
v -2.828369 2.828369 0.000000
v -3.695557 1.414307 0.585693
v -3.695557 1.530762 0.000000
v 0.000000 2.828369 2.828369
v -1.530762 2.613037 2.613037
v -2.828369 2.000000 2.000000
v -3.695557 1.082275 1.082275
v -1.530762 -3.414307 1.414307
v 0.000000 -2.828369 2.828369
v 0.000000 -3.695557 1.530762
v 1.530762 -2.613037 2.613037
v 1.530762 -3.414307 1.414307
v 2.828369 -2.000000 2.000000
v 2.828369 -2.613037 1.082275
v 3.695557 -1.082275 1.082275
v 3.695557 -1.414307 0.585693
v -1.530762 1.414307 3.414307
v -2.828369 1.082275 2.613037
v -3.695557 0.585693 1.414307
v 1.530762 -1.414307 3.414307
v 2.828369 -1.082275 2.613037
v 3.695557 -0.585693 1.414307
v 1.530762 -3.695557 0.000000
v 0.000000 -4.000000 0.000000
v 2.828369 -2.828369 0.000000
v 3.695557 -1.530762 0.000000
v -2.828369 0.000000 2.828369
v -3.695557 0.000000 1.530762
v -2.828369 -2.828369 0.000000
v -1.530762 -3.695557 0.000000
v 0.000000 -4.000000 0.000000
v 2.828369 0.000000 2.828369
v 3.695557 0.000000 1.530762
v -3.695557 -0.585693 1.414307
v 3.695557 0.585693 1.414307

vt 0.196289 0.451843
vt 0.250000 0.500000
vt 0.187500 0.500000
vt 0.218231 0.417480
vt 0.227844 0.307556
vt 0.284332 0.300751
vt 0.374207 0.219391
vt 0.404327 0.269043
vt 0.500000 0.250000
vt 0.500000 0.312500
vt 0.578735 0.324371
vt 0.569092 0.382050
vt 0.636078 0.403778
vt 0.627655 0.451141
vt 0.690125 0.469879
vt 0.687500 0.500000
vt 0.750000 0.500000
vt 0.160706 0.370148
vt 0.316376 0.186523
vt 0.500000 0.187500
vt 0.595673 0.269043
vt 0.651581 0.359955
vt 0.698059 0.441986
vt 0.625000 0.500000
vt 0.564056 0.440826
vt 0.562500 0.500000
vt 0.500000 0.437500
vt 0.500000 0.500000
vt 0.435944 0.440826
vt 0.437500 0.500000
vt 0.372345 0.451141
vt 0.375000 0.500000
vt 0.309875 0.469879
vt 0.312500 0.500000
vt 0.500000 0.375000
vt 0.430908 0.382050
vt 0.363922 0.403778
vt 0.301941 0.441986
vt 0.196808 0.219879
vt 0.500000 0.125000
vt 0.500000 0.062500
vt 0.683624 0.186523
vt 0.803192 0.219879
vt 0.772156 0.307556
vt 0.839294 0.370148
vt 0.781769 0.417480
vt 0.803711 0.451843
vt 0.421265 0.324371
vt 0.348419 0.359955
vt 0.288361 0.419006
vt 0.625793 0.219391
vt 0.715668 0.300751
vt 0.755341 0.402283
vt 0.937500 0.500000
vt 1.000000 0.500000
vt 0.875000 0.500000
vt 0.812500 0.500000
vt 0.323212 0.323212
vt 0.269043 0.404327
vt 0.125000 0.500000
vt 0.062500 0.500000
vt 0.000000 0.500000
vt 0.676788 0.323212
vt 0.730957 0.404327
vt 0.244659 0.402283
vt 0.711639 0.419006

vn -0.897472 -0.392583 0.201052
vn -1.000000 0.000000 0.000000
vn -0.897471 -0.439641 0.035523
vn -0.897482 -0.285773 0.335945
vn -0.688213 -0.493394 0.531907
vn -0.688215 -0.252313 0.680219
vn -0.372684 -0.341434 0.862861
vn -0.372676 0.014770 0.927844
vn 0.000000 0.000000 1.000000
vn 0.000000 0.382686 0.923878
vn 0.372684 0.341434 0.862861
vn 0.372674 0.645680 0.666492
vn 0.688213 0.493394 0.531907
vn 0.688233 0.659364 0.302613
vn 0.897472 0.392583 0.201052
vn 0.897495 0.439592 0.035524
vn 1.000000 0.000000 0.000000
vn -0.688233 -0.659364 0.302613
vn -0.372674 -0.645680 0.666492
vn 0.000000 -0.382686 0.923878
vn 0.372676 -0.014770 0.927844
vn 0.688215 0.252313 0.680219
vn 0.897482 0.285773 0.335945
vn 0.688234 0.724978 0.027222
vn 0.372681 0.851563 0.368714
vn 0.372676 0.927844 0.014770
vn 0.000000 0.923878 0.382686
vn 0.000000 1.000000 0.000000
vn -0.372684 0.862861 0.341434
vn -0.372676 0.927844 -0.014770
vn -0.688215 0.680219 0.252313
vn -0.688234 0.724978 -0.027222
vn -0.897479 0.419747 0.135440
vn -0.897495 0.439592 -0.035524
vn 0.000000 0.707107 0.707107
vn -0.372674 0.666492 0.645680
vn -0.688213 0.531907 0.493394
vn -0.897482 0.335945 0.285773
vn -0.372681 -0.851563 0.368714
vn 0.000000 -0.707107 0.707107
vn 0.000000 -0.923878 0.382686
vn 0.372674 -0.666492 0.645680
vn 0.372684 -0.862861 0.341434
vn 0.688213 -0.531907 0.493394
vn 0.688215 -0.680219 0.252313
vn 0.897482 -0.335945 0.285773
vn 0.897479 -0.419747 0.135440
vn -0.372681 0.368714 0.851563
vn -0.688233 0.302613 0.659364
vn -0.897472 0.201052 0.392583
vn 0.372681 -0.368714 0.851563
vn 0.688233 -0.302613 0.659364
vn 0.897472 -0.201052 0.392583
vn 0.372676 -0.927844 -0.014770
vn 0.000000 -1.000000 0.000000
vn 0.688234 -0.724978 -0.027222
vn 0.897495 -0.439592 -0.035524
vn -0.688234 0.027222 0.724978
vn -0.897495 0.035524 0.439592
vn -0.688234 -0.724978 0.027222
vn -0.372676 -0.927844 0.014770
vn 0.000000 -1.000000 0.000000
vn 0.688234 -0.027222 0.724978
vn 0.897495 -0.035524 0.439592
vn -0.897479 -0.135440 0.419747
vn 0.897479 0.135440 0.419747

g polygon0
s 1
usemtl mat1
f 1/1/1 2/2/2 3/3/3
f 1/1/1 4/4/4 2/2/2
f 5/5/5 4/4/4 1/1/1
f 5/5/5 6/6/6 4/4/4
f 7/7/7 6/6/6 5/5/5
f 7/7/7 8/8/8 6/6/6
f 9/9/9 8/8/8 7/7/7
f 9/9/9 10/10/10 8/8/8
f 11/11/11 10/10/10 9/9/9
f 11/11/11 12/12/12 10/10/10
f 13/13/13 12/12/12 11/11/11
f 13/13/13 14/14/14 12/12/12
f 15/15/15 14/14/14 13/13/13
f 15/15/15 16/16/16 14/14/14
f 17/17/17 16/16/16 15/15/15
f 18/18/18 1/1/1 3/3/3
f 18/18/18 5/5/5 1/1/1
f 19/19/19 5/5/5 18/18/18
f 19/19/19 7/7/7 5/5/5
f 20/20/20 7/7/7 19/19/19
f 20/20/20 9/9/9 7/7/7
f 21/21/21 9/9/9 20/20/20
f 21/21/21 11/11/11 9/9/9
f 22/22/22 11/11/11 21/21/21
f 22/22/22 13/13/13 11/11/11
f 23/23/23 13/13/13 22/22/22
f 23/23/23 15/15/15 13/13/13
f 17/17/17 15/15/15 23/23/23
f 24/24/24 14/14/14 16/16/16
f 24/24/24 25/25/25 14/14/14
f 26/26/26 25/25/25 24/24/24
f 26/26/26 27/27/27 25/25/25
f 28/28/28 27/27/27 26/26/26
f 28/28/28 29/29/29 27/27/27
f 30/30/30 29/29/29 28/28/28
f 30/30/30 31/31/31 29/29/29
f 32/32/32 31/31/31 30/30/30
f 32/32/32 33/33/33 31/31/31
f 34/34/34 33/33/33 32/32/32
f 34/34/34 2/2/2 33/33/33
f 25/25/25 12/12/12 14/14/14
f 25/25/25 35/35/35 12/12/12
f 27/27/27 35/35/35 25/25/25
f 27/27/27 36/36/36 35/35/35
f 29/29/29 36/36/36 27/27/27
f 29/29/29 37/37/37 36/36/36
f 31/31/31 37/37/37 29/29/29
f 31/31/31 38/38/38 37/37/37
f 33/33/33 38/38/38 31/31/31
f 33/33/33 2/2/2 38/38/38
f 39/39/39 19/19/19 18/18/18
f 39/39/39 40/40/40 19/19/19
f 41/41/41 40/40/40 39/39/39
f 41/41/41 42/42/42 40/40/40
f 43/43/43 42/42/42 41/41/41
f 43/43/43 44/44/44 42/42/42
f 45/45/45 44/44/44 43/43/43
f 45/45/45 46/46/46 44/44/44
f 47/47/47 46/46/46 45/45/45
f 47/47/47 17/17/17 46/46/46
f 35/35/35 10/10/10 12/12/12
f 35/35/35 48/48/48 10/10/10
f 36/36/36 48/48/48 35/35/35
f 36/36/36 49/49/49 48/48/48
f 37/37/37 49/49/49 36/36/36
f 37/37/37 50/50/50 49/49/49
f 38/38/38 50/50/50 37/37/37
f 38/38/38 2/2/2 50/50/50
f 40/40/40 20/20/20 19/19/19
f 40/40/40 51/51/51 20/20/20
f 42/42/42 51/51/51 40/40/40
f 42/42/42 52/52/52 51/51/51
f 44/44/44 52/52/52 42/42/42
f 44/44/44 53/53/53 52/52/52
f 46/46/46 53/53/53 44/44/44
f 46/46/46 17/17/17 53/53/53
f 54/54/54 43/43/43 55/55/55
f 54/54/54 45/45/45 43/43/43
f 56/56/56 45/45/45 54/54/54
f 56/56/56 47/47/47 45/45/45
f 57/57/57 47/47/47 56/56/56
f 57/57/57 17/17/17 47/47/47
f 48/48/48 8/8/8 10/10/10
f 48/48/48 58/58/58 8/8/8
f 49/49/49 58/58/58 48/48/48
f 49/49/49 59/59/59 58/58/58
f 50/50/50 59/59/59 49/49/49
f 50/50/50 2/2/2 59/59/59
f 60/60/60 18/18/18 3/3/3
f 60/60/60 39/39/39 18/18/18
f 61/61/61 39/39/39 60/60/60
f 61/61/61 41/41/41 39/39/39
f 62/62/62 41/41/41 61/61/61
f 62/62/62 43/43/43 41/41/41
f 51/51/51 21/21/21 20/20/20
f 51/51/51 63/63/63 21/21/21
f 52/52/52 63/63/63 51/51/51
f 52/52/52 64/64/64 63/63/63
f 53/53/53 64/64/64 52/52/52
f 53/53/53 17/17/17 64/64/64
f 58/58/58 6/6/6 8/8/8
f 58/58/58 65/65/65 6/6/6
f 59/59/59 65/65/65 58/58/58
f 59/59/59 2/2/2 65/65/65
f 63/63/63 22/22/22 21/21/21
f 63/63/63 66/66/66 22/22/22
f 64/64/64 66/66/66 63/63/63
f 64/64/64 17/17/17 66/66/66
f 4/4/4 65/65/65 2/2/2
f 4/4/4 6/6/6 65/65/65
f 66/66/66 23/23/23 22/22/22
f 66/66/66 17/17/17 23/23/23

v 3.695557 -1.530762 -0.067645
v 1.530762 -3.695557 -0.067645
v 2.828369 -2.828369 -0.067645
v -1.530762 -3.695557 -0.067645
v -3.695557 1.530762 -0.067645
v -3.695557 -1.530762 -0.067645
v -4.000000 0.000000 -0.067645
v -1.530762 3.695557 -0.067645
v -2.828369 2.828369 -0.067645
v 1.530762 3.695557 -0.067645
v 3.695557 1.530762 -0.067645
v 4.000000 0.000000 -0.067645
v 0.000000 -4.000000 -0.067645
v -2.828369 -2.828369 -0.067645
v 0.000000 4.000000 -0.067645
v 2.828369 2.828369 -0.067645

vt 1.057312 0.269165
vt 0.730835 -0.057312
vt 0.926575 0.073425
vt 0.269165 -0.057312
vt -0.057312 0.730835
vt -0.057312 0.269165
vt -0.103271 0.500000
vt 0.269165 1.057312
vt 0.073425 0.926575
vt 0.730835 1.057312
vt 1.057312 0.730835
vt 1.103271 0.500000
vt 0.500000 -0.103271
vt 0.073425 0.073425
vt 0.500000 1.103271
vt 0.926575 0.926575

vn -0.926295 0.376798 0.000000
vn -0.376798 0.926295 0.000000
vn -0.707107 0.707107 0.000000
vn 0.376798 0.926295 0.000000
vn 0.926295 -0.376798 0.000000
vn 0.926295 0.376798 0.000000
vn 1.000000 0.000000 0.000000
vn 0.376798 -0.926295 0.000000
vn 0.707107 -0.707107 0.000000
vn -0.376798 -0.926295 0.000000
vn -0.926295 -0.376798 0.000000
vn -1.000000 0.000000 0.000000
vn 0.000000 1.000000 0.000000
vn 0.707107 0.707107 0.000000
vn 0.000000 -1.000000 0.000000
vn -0.707107 -0.707107 0.000000

g polygon1
s 1
usemtl mat2
f 67/67/67 68/68/68 69/69/69
f 67/67/67 70/70/70 68/68/68
f 71/71/71 70/70/70 67/67/67
f 71/71/71 72/72/72 70/70/70
f 73/73/73 72/72/72 71/71/71
f 71/71/71 74/74/74 75/75/75
f 71/71/71 76/76/76 74/74/74
f 67/67/67 76/76/76 71/71/71
f 67/67/67 77/77/77 76/76/76
f 78/78/78 77/77/77 67/67/67
f 79/79/79 68/68/68 70/70/70
f 80/80/80 70/70/70 72/72/72
f 81/81/81 74/74/74 76/76/76
f 82/82/82 76/76/76 77/77/77

v 0.000000 3.422957 0.029402
v -1.106201 2.671492 -0.000871
v 0.000000 2.891707 -0.000871
v -1.309570 3.162459 0.029402
v -1.471191 3.552596 0.011580
v -2.718262 2.719344 0.011580
v -2.827637 2.828475 -0.006486
v -3.694580 1.531111 -0.006486
v -3.850098 1.595565 -0.029435
v -4.167236 0.000838 -0.029435
v -4.659668 1.931014 0.000838
v -5.043701 0.000838 0.000838
v -6.532959 2.706893 0.000838
v -7.071289 0.000838 0.000838
v -2.043945 2.045027 -0.000871
v -2.419678 2.420760 0.029402
v -3.551758 1.472029 0.011580
v -3.999023 0.000838 -0.006486
v -3.850098 -1.593889 -0.029435
v -4.659668 -1.929338 0.000838
v -6.532959 -2.705217 0.000838
v -2.670654 1.107039 -0.000871
v -3.161621 1.310408 0.029402
v -3.844482 0.000838 0.011580
v -3.694580 -1.529435 -0.006486
v -2.946777 -2.945695 -0.029435
v -3.566406 -3.565568 0.000838
v -5.000000 -4.999162 0.000838
v -2.890625 0.000838 -0.000871
v -3.422119 0.000838 0.029402
v -3.551758 -1.470353 0.011580
v -2.827637 -2.826799 -0.006486
v -1.594727 -3.849015 -0.029435
v -1.930176 -4.658830 0.000838
v -2.706055 -6.532121 0.000838
v -2.670654 -1.105363 -0.000871
v -3.161621 -1.308732 0.029402
v -2.718262 -2.717424 0.011580
v -1.530273 -3.693742 -0.006486
v 0.000000 -4.166399 -0.029435
v 0.000000 -5.042863 0.000838
v 0.000000 -7.070207 0.000838
v -2.043945 -2.043107 -0.000871
v -2.419678 -2.418840 0.029402
v -1.471191 -3.550920 0.011580
v 0.000000 -3.998185 -0.006486
v 1.594727 -3.849015 -0.029435
v 1.930176 -4.658830 0.000838
v 2.706055 -6.532121 0.000838
v -1.106201 -2.669816 -0.000871
v -1.309570 -3.160783 0.029402
v 0.000000 -3.843400 0.011580
v 1.530273 -3.693742 -0.006486
v 2.946777 -2.945695 -0.029435
v 3.566406 -3.565568 0.000838
v 5.000000 -4.999162 0.000838
v 0.000000 -2.889787 -0.000871
v 0.000000 -3.421281 0.029402
v 1.471191 -3.550920 0.011580
v 2.827637 -2.826799 -0.006486
v 3.850098 -1.593889 -0.029435
v 4.659668 -1.929338 0.000838
v 6.532959 -2.705217 0.000838
v 1.106201 -2.669816 -0.000871
v 1.309570 -3.160783 0.029402
v 2.718262 -2.717424 0.011580
v 3.694580 -1.529435 -0.006486
v 4.167236 0.000838 -0.029435
v 5.043701 0.000838 0.000838
v 7.071289 0.000838 0.000838
v 2.043945 -2.043107 -0.000871
v 2.419678 -2.418840 0.029402
v 3.551758 -1.470353 0.011580
v 3.999023 0.000838 -0.006486
v 3.850098 1.595565 -0.029435
v 4.659668 1.931014 0.000838
v 6.532959 2.706893 0.000838
v 2.670654 -1.105363 -0.000871
v 3.161621 -1.308732 0.029402
v 3.844482 0.000838 0.011580
v 3.694580 1.531111 -0.006486
v 2.946777 2.947615 -0.029435
v 3.566406 3.567244 0.000838
v 5.000000 5.000838 0.000838
v 2.890625 0.000838 -0.000871
v 3.422119 0.000838 0.029402
v 3.551758 1.472029 0.011580
v 2.827637 2.828475 -0.006486
v 1.594727 3.850936 -0.029435
v 1.930176 4.660750 0.000838
v 2.706055 6.533797 0.000838
v 2.670654 1.107039 -0.000871
v 3.161621 1.310408 0.029402
v 2.718262 2.719344 0.011580
v 1.530273 3.695418 -0.006486
v 0.000000 4.168074 -0.029435
v 0.000000 5.044539 0.000838
v 0.000000 7.072127 0.000838
v -5.000000 5.000838 0.000838
v -3.566406 3.567244 0.000838
v -2.946777 2.947615 -0.029435
v -1.530273 3.695418 -0.006486
v 0.000000 3.845320 0.011580
v 2.043945 2.045027 -0.000871
v 2.419678 2.420760 0.029402
v 1.471191 3.552596 0.011580
v 0.000000 3.999861 -0.006486
v -2.706055 6.533797 0.000838
v -1.930176 4.660750 0.000838
v -1.594727 3.850936 -0.029435
v 0.000000 3.999861 -0.006486
v 1.106201 2.671492 -0.000871
v 1.309570 3.162459 0.029402
v 0.000000 3.845320 0.011580
v 0.000000 7.072127 0.000838
v 0.000000 5.044539 0.000838
v 0.000000 4.168074 -0.029435
v 0.000000 2.891707 -0.000871
v 0.000000 3.422957 0.029402

vt 1.000000 0.237610
vt 0.948181 0.000000
vt 1.000000 0.000000
vt 0.948181 0.238678
vt 0.948181 0.330048
vt 0.885681 0.330048
vt 0.885681 0.375000
vt 0.812500 0.375000
vt 0.812500 0.420685
vt 0.705139 0.420746
vt 0.812500 0.543152
vt 0.705139 0.543182
vt 0.812500 1.000000
vt 0.705139 1.000000
vt 0.885681 0.000000
vt 0.885681 0.238678
vt 0.812500 0.330048
vt 0.705139 0.375000
vt 0.606323 0.420746
vt 0.606323 0.543182
vt 0.606323 1.000000
vt 0.812500 0.000000
vt 0.812500 0.238678
vt 0.705139 0.330048
vt 0.606323 0.375000
vt 0.543823 0.420746
vt 0.543823 0.543182
vt 0.543823 1.000000
vt 0.705139 0.000000
vt 0.705139 0.238678
vt 0.606323 0.330048
vt 0.543823 0.375000
vt 0.498413 0.420746
vt 0.498413 0.543213
vt 0.498413 1.000000
vt 0.606323 0.000000
vt 0.606323 0.238678
vt 0.543823 0.330048
vt 0.498413 0.375000
vt 0.463684 0.420746
vt 0.463684 0.543213
vt 0.463684 1.000000
vt 0.543823 0.000000
vt 0.543823 0.238678
vt 0.498413 0.330048
vt 0.463684 0.375000
vt 0.444702 0.420746
vt 0.444702 0.543213
vt 0.444702 1.000000
vt 0.498413 0.000000
vt 0.498413 0.238678
vt 0.463684 0.330048
vt 0.444702 0.375000
vt 0.405884 0.420746
vt 0.405884 0.543213
vt 0.405884 1.000000
vt 0.463684 0.000000
vt 0.463684 0.238678
vt 0.444702 0.330048
vt 0.405884 0.375000
vt 0.363770 0.420746
vt 0.363770 0.543335
vt 0.363770 1.000000
vt 0.444702 0.000000
vt 0.444702 0.238678
vt 0.405884 0.330048
vt 0.363770 0.375000
vt 0.307678 0.420746
vt 0.307678 0.543182
vt 0.307678 1.000000
vt 0.405884 0.000000
vt 0.405884 0.238678
vt 0.363770 0.330048
vt 0.307678 0.375000
vt 0.213135 0.420746
vt 0.213135 0.543182
vt 0.213135 1.000000
vt 0.363770 0.000000
vt 0.363770 0.238678
vt 0.307678 0.330048
vt 0.213135 0.375000
vt 0.131409 0.420746
vt 0.131409 0.543182
vt 0.131409 1.000000
vt 0.307678 0.000000
vt 0.307678 0.238678
vt 0.213135 0.330048
vt 0.131409 0.375000
vt 0.062500 0.420685
vt 0.062500 0.543152
vt 0.062500 1.000000
vt 0.213135 0.000000
vt 0.213135 0.238678
vt 0.131409 0.330048
vt 0.062500 0.375000
vt 0.000000 0.420746
vt 0.000000 0.543182
vt 0.000000 1.000000
vt 0.885681 1.000000
vt 0.885681 0.543182
vt 0.885681 0.420746
vt 0.948181 0.375000
vt 1.000000 0.330048
vt 0.131409 0.000000
vt 0.131409 0.238678
vt 0.062500 0.330048
vt 0.000000 0.375000
vt 0.948181 1.000000
vt 0.948181 0.543152
vt 0.948181 0.420685
vt 1.000000 0.375000
vt 0.062500 0.000000
vt 0.062500 0.237640
vt 0.000000 0.330048
vt 1.000000 1.000000
vt 1.000000 0.543152
vt 1.000000 0.420685
vt 0.000000 0.000000
vt 0.000000 0.238678

vn 0.000366 -0.010742 0.999942
vn 0.024292 -0.057799 0.998033
vn 0.000366 -0.062682 0.998033
vn 0.000366 -0.010742 0.999942
vn -0.024292 0.057799 0.998033
vn -0.044555 0.044128 0.998032
vn -0.090330 0.088438 0.991978
vn -0.117306 0.047118 0.991977
vn 0.010742 0.000366 0.999942
vn 0.010742 0.000366 0.999942
vn 0.010742 0.000366 0.999942
vn 0.010742 0.000366 0.999942
vn 0.000000 0.000000 1.000000
vn 0.000000 0.000000 1.000000
vn 0.044555 -0.044128 0.998032
vn 0.000366 -0.010742 0.999942
vn -0.058044 0.023681 0.998033
vn -0.126401 -0.001343 0.991978
vn 0.010742 0.000366 0.999942
vn 0.010742 0.000366 0.999942
vn 0.000000 0.000000 1.000000
vn 0.058044 -0.023681 0.998033
vn 0.000366 -0.010742 0.999942
vn -0.062682 -0.000366 0.998033
vn -0.116269 -0.049620 0.991978
vn 0.010742 0.000366 0.999942
vn 0.010681 0.012024 0.999871
vn 0.000000 0.000000 1.000000
vn 0.062682 0.000366 0.998033
vn 0.010742 0.000366 0.999942
vn -0.057799 -0.024292 0.998033
vn -0.088438 -0.090330 0.991978
vn -0.000366 0.010742 0.999942
vn -0.000366 0.010742 0.999942
vn 0.000000 0.000000 1.000000
vn 0.057799 0.024292 0.998033
vn 0.010742 0.000366 0.999942
vn -0.044128 -0.044616 0.998029
vn -0.047118 -0.117306 0.991977
vn -0.000366 0.010742 0.999942
vn -0.000366 0.010742 0.999942
vn 0.000000 0.000000 1.000000
vn 0.044128 0.044555 0.998032
vn 0.010742 0.000366 0.999942
vn -0.023681 -0.058044 0.998033
vn 0.001343 -0.126401 0.991978
vn -0.000366 0.010742 0.999942
vn -0.000366 0.010742 0.999942
vn 0.000000 0.000000 1.000000
vn 0.023681 0.058044 0.998033
vn 0.010742 0.000366 0.999942
vn 0.000366 -0.062682 0.998033
vn 0.049620 -0.116269 0.991978
vn -0.000366 0.010742 0.999942
vn -0.012024 0.010681 0.999871
vn 0.000000 0.000000 1.000000
vn -0.000366 0.062682 0.998033
vn -0.000366 0.010742 0.999942
vn 0.024292 -0.057799 0.998033
vn 0.090330 -0.088438 0.991978
vn -0.010742 -0.000366 0.999942
vn -0.010742 -0.000366 0.999942
vn 0.000000 0.000000 1.000000
vn -0.024292 0.057799 0.998033
vn -0.000366 0.010742 0.999942
vn 0.044555 -0.044128 0.998032
vn 0.117306 -0.047118 0.991977
vn -0.010742 -0.000366 0.999942
vn -0.010742 -0.000366 0.999942
vn 0.000000 0.000000 1.000000
vn -0.044555 0.044128 0.998032
vn -0.000366 0.010742 0.999942
vn 0.058044 -0.023681 0.998033
vn 0.126401 0.001343 0.991978
vn -0.010742 -0.000366 0.999942
vn -0.010742 -0.000366 0.999942
vn 0.000000 0.000000 1.000000
vn -0.058044 0.023681 0.998033
vn -0.000366 0.010742 0.999942
vn 0.062682 0.000366 0.998033
vn 0.116269 0.049620 0.991978
vn 0.000366 -0.010742 0.999942
vn -0.010681 -0.012024 0.999871
vn 0.000000 0.000000 1.000000
vn -0.062682 -0.000366 0.998033
vn -0.010742 -0.000366 0.999942
vn 0.057799 0.024292 0.998033
vn 0.088438 0.090330 0.991978
vn 0.000366 -0.010742 0.999942
vn 0.000366 -0.010742 0.999942
vn 0.000000 0.000000 1.000000
vn -0.057799 -0.024292 0.998033
vn -0.010742 -0.000366 0.999942
vn 0.044128 0.044555 0.998032
vn 0.047118 0.117306 0.991977
vn 0.000366 -0.010742 0.999942
vn 0.000366 -0.010742 0.999942
vn 0.000000 0.000000 1.000000
vn 0.000000 0.000000 1.000000
vn 0.012024 -0.010681 0.999871
vn 0.000366 -0.010742 0.999942
vn -0.049620 0.116269 0.991978
vn -0.000366 0.062682 0.998033
vn -0.044128 -0.044616 0.998029
vn 0.000366 -0.010742 0.999942
vn 0.023681 0.058044 0.998033
vn -0.001343 0.126401 0.991978
vn 0.000000 0.000000 1.000000
vn 0.000366 -0.010742 0.999942
vn 0.000366 -0.010742 0.999942
vn -0.001343 0.126401 0.991978
vn -0.023681 -0.058044 0.998033
vn 0.000366 -0.010742 0.999942
vn -0.000366 0.062682 0.998033
vn 0.000000 0.000000 1.000000
vn 0.000366 -0.010742 0.999942
vn 0.000366 -0.010742 0.999942
vn 0.000366 -0.062682 0.998033
vn 0.000366 -0.010742 0.999942

g polygon2
s 1
usemtl mat3
f 83/83/83 84/84/84 85/85/85
f 83/83/83 86/86/86 84/84/84
f 87/87/87 86/86/86 83/83/83
f 87/87/87 88/88/88 86/86/86
f 89/89/89 88/88/88 87/87/87
f 89/89/89 90/90/90 88/88/88
f 91/91/91 90/90/90 89/89/89
f 91/91/91 92/92/92 90/90/90
f 93/93/93 92/92/92 91/91/91
f 93/93/93 94/94/94 92/92/92
f 95/95/95 94/94/94 93/93/93
f 95/95/95 96/96/96 94/94/94
f 86/86/86 97/97/97 84/84/84
f 86/86/86 98/98/98 97/97/97
f 88/88/88 98/98/98 86/86/86
f 88/88/88 99/99/99 98/98/98
f 90/90/90 99/99/99 88/88/88
f 90/90/90 100/100/100 99/99/99
f 92/92/92 100/100/100 90/90/90
f 92/92/92 101/101/101 100/100/100
f 94/94/94 101/101/101 92/92/92
f 94/94/94 102/102/102 101/101/101
f 96/96/96 102/102/102 94/94/94
f 96/96/96 103/103/103 102/102/102
f 98/98/98 104/104/104 97/97/97
f 98/98/98 105/105/105 104/104/104
f 99/99/99 105/105/105 98/98/98
f 99/99/99 106/106/106 105/105/105
f 100/100/100 106/106/106 99/99/99
f 100/100/100 107/107/107 106/106/106
f 101/101/101 107/107/107 100/100/100
f 101/101/101 108/108/108 107/107/107
f 102/102/102 108/108/108 101/101/101
f 102/102/102 109/109/109 108/108/108
f 103/103/103 109/109/109 102/102/102
f 103/103/103 110/110/110 109/109/109
f 105/105/105 111/111/111 104/104/104
f 105/105/105 112/112/112 111/111/111
f 106/106/106 112/112/112 105/105/105
f 106/106/106 113/113/113 112/112/112
f 107/107/107 113/113/113 106/106/106
f 107/107/107 114/114/114 113/113/113
f 108/108/108 114/114/114 107/107/107
f 108/108/108 115/115/115 114/114/114
f 109/109/109 115/115/115 108/108/108
f 109/109/109 116/116/116 115/115/115
f 110/110/110 116/116/116 109/109/109
f 110/110/110 117/117/117 116/116/116
f 112/112/112 118/118/118 111/111/111
f 112/112/112 119/119/119 118/118/118
f 113/113/113 119/119/119 112/112/112
f 113/113/113 120/120/120 119/119/119
f 114/114/114 120/120/120 113/113/113
f 114/114/114 121/121/121 120/120/120
f 115/115/115 121/121/121 114/114/114
f 115/115/115 122/122/122 121/121/121
f 116/116/116 122/122/122 115/115/115
f 116/116/116 123/123/123 122/122/122
f 117/117/117 123/123/123 116/116/116
f 117/117/117 124/124/124 123/123/123
f 119/119/119 125/125/125 118/118/118
f 119/119/119 126/126/126 125/125/125
f 120/120/120 126/126/126 119/119/119
f 120/120/120 127/127/127 126/126/126
f 121/121/121 127/127/127 120/120/120
f 121/121/121 128/128/128 127/127/127
f 122/122/122 128/128/128 121/121/121
f 122/122/122 129/129/129 128/128/128
f 123/123/123 129/129/129 122/122/122
f 123/123/123 130/130/130 129/129/129
f 124/124/124 130/130/130 123/123/123
f 124/124/124 131/131/131 130/130/130
f 126/126/126 132/132/132 125/125/125
f 126/126/126 133/133/133 132/132/132
f 127/127/127 133/133/133 126/126/126
f 127/127/127 134/134/134 133/133/133
f 128/128/128 134/134/134 127/127/127
f 128/128/128 135/135/135 134/134/134
f 129/129/129 135/135/135 128/128/128
f 129/129/129 136/136/136 135/135/135
f 130/130/130 136/136/136 129/129/129
f 130/130/130 137/137/137 136/136/136
f 131/131/131 137/137/137 130/130/130
f 131/131/131 138/138/138 137/137/137
f 133/133/133 139/139/139 132/132/132
f 133/133/133 140/140/140 139/139/139
f 134/134/134 140/140/140 133/133/133
f 134/134/134 141/141/141 140/140/140
f 135/135/135 141/141/141 134/134/134
f 135/135/135 142/142/142 141/141/141
f 136/136/136 142/142/142 135/135/135
f 136/136/136 143/143/143 142/142/142
f 137/137/137 143/143/143 136/136/136
f 137/137/137 144/144/144 143/143/143
f 138/138/138 144/144/144 137/137/137
f 138/138/138 145/145/145 144/144/144
f 140/140/140 146/146/146 139/139/139
f 140/140/140 147/147/147 146/146/146
f 141/141/141 147/147/147 140/140/140
f 141/141/141 148/148/148 147/147/147
f 142/142/142 148/148/148 141/141/141
f 142/142/142 149/149/149 148/148/148
f 143/143/143 149/149/149 142/142/142
f 143/143/143 150/150/150 149/149/149
f 144/144/144 150/150/150 143/143/143
f 144/144/144 151/151/151 150/150/150
f 145/145/145 151/151/151 144/144/144
f 145/145/145 152/152/152 151/151/151
f 147/147/147 153/153/153 146/146/146
f 147/147/147 154/154/154 153/153/153
f 148/148/148 154/154/154 147/147/147
f 148/148/148 155/155/155 154/154/154
f 149/149/149 155/155/155 148/148/148
f 149/149/149 156/156/156 155/155/155
f 150/150/150 156/156/156 149/149/149
f 150/150/150 157/157/157 156/156/156
f 151/151/151 157/157/157 150/150/150
f 151/151/151 158/158/158 157/157/157
f 152/152/152 158/158/158 151/151/151
f 152/152/152 159/159/159 158/158/158
f 154/154/154 160/160/160 153/153/153
f 154/154/154 161/161/161 160/160/160
f 155/155/155 161/161/161 154/154/154
f 155/155/155 162/162/162 161/161/161
f 156/156/156 162/162/162 155/155/155
f 156/156/156 163/163/163 162/162/162
f 157/157/157 163/163/163 156/156/156
f 157/157/157 164/164/164 163/163/163
f 158/158/158 164/164/164 157/157/157
f 158/158/158 165/165/165 164/164/164
f 159/159/159 165/165/165 158/158/158
f 159/159/159 166/166/166 165/165/165
f 161/161/161 167/167/167 160/160/160
f 161/161/161 168/168/168 167/167/167
f 162/162/162 168/168/168 161/161/161
f 162/162/162 169/169/169 168/168/168
f 163/163/163 169/169/169 162/162/162
f 163/163/163 170/170/170 169/169/169
f 164/164/164 170/170/170 163/163/163
f 164/164/164 171/171/171 170/170/170
f 165/165/165 171/171/171 164/164/164
f 165/165/165 172/172/172 171/171/171
f 166/166/166 172/172/172 165/165/165
f 166/166/166 173/173/173 172/172/172
f 168/168/168 174/174/174 167/167/167
f 168/168/168 175/175/175 174/174/174
f 169/169/169 175/175/175 168/168/168
f 169/169/169 176/176/176 175/175/175
f 170/170/170 176/176/176 169/169/169
f 170/170/170 177/177/177 176/176/176
f 171/171/171 177/177/177 170/170/170
f 171/171/171 178/178/178 177/177/177
f 172/172/172 178/178/178 171/171/171
f 172/172/172 179/179/179 178/178/178
f 173/173/173 179/179/179 172/172/172
f 173/173/173 180/180/180 179/179/179
f 93/93/93 181/181/181 95/95/95
f 93/93/93 182/182/182 181/181/181
f 91/91/91 182/182/182 93/93/93
f 91/91/91 183/183/183 182/182/182
f 89/89/89 183/183/183 91/91/91
f 89/89/89 184/184/184 183/183/183
f 87/87/87 184/184/184 89/89/89
f 87/87/87 185/185/185 184/184/184
f 83/83/83 185/185/185 87/87/87
f 175/175/175 186/186/186 174/174/174
f 175/175/175 187/187/187 186/186/186
f 176/176/176 187/187/187 175/175/175
f 176/176/176 188/188/188 187/187/187
f 177/177/177 188/188/188 176/176/176
f 177/177/177 189/189/189 188/188/188
f 178/178/178 189/189/189 177/177/177
f 182/182/182 190/190/190 181/181/181
f 182/182/182 191/191/191 190/190/190
f 183/183/183 191/191/191 182/182/182
f 183/183/183 192/192/192 191/191/191
f 184/184/184 192/192/192 183/183/183
f 184/184/184 193/193/193 192/192/192
f 185/185/185 193/193/193 184/184/184
f 187/187/187 194/194/194 186/186/186
f 187/187/187 195/195/195 194/194/194
f 188/188/188 195/195/195 187/187/187
f 188/188/188 196/196/196 195/195/195
f 189/189/189 196/196/196 188/188/188
f 191/191/191 197/197/197 190/190/190
f 191/191/191 198/198/198 197/197/197
f 192/192/192 198/198/198 191/191/191
f 192/192/192 199/199/199 198/198/198
f 193/193/193 199/199/199 192/192/192
f 195/195/195 200/200/200 194/194/194
f 195/195/195 201/201/201 200/200/200
f 196/196/196 201/201/201 195/195/195

